<svg width="53" height="35" fill="none" xmlns="http://www.w3.org/2000/svg"><path d="M.28 3a3 3 0 0 1 2.999-3h46.093a3 3 0 0 1 3 3v29a3 3 0 0 1-3 3H3.28a3 3 0 0 1-3-3V3Z" fill="#2F4653"/><path d="M14.722 13.964c-.01-.646-.202-1.293-.778-1.657-.556-.353-1.293-.343-1.728.192-.03.04-.11.122-.09.182.02.06.161.05.212.081.1.05.141.152.131.253 0 .12 0 1.303-.01 2.92l-4.284-.03a7.59 7.59 0 0 1-.01-1.183c.02-.394.07-.798.152-1.192.03-.172.07-.344.12-.515.051-.182.183-.415.173-.607 0-.03-.01-.05-.02-.07-.041-.05-.112-.04-.172-.02a2.41 2.41 0 0 0-1 .535c-.081.08-.314.293-.526.667-.546.98-.596 2.374-.596 2.374-.03.9-.06 2.728.9 4.627 0 0 .676 1.334 1.636 1.657.192.06.242.02.262 0 .071-.1-.09-.262-.13-.333a2.434 2.434 0 0 1-.223-.424 4.382 4.382 0 0 1-.283-.96c-.202-.99-.333-2-.303-3.011h4.324v3.819c0 .253.101.495.334.616.14.071.303.101.454.121.273.03.556.051.829 0a.864.864 0 0 0 .434-.201c.192-.182.192-.415.192-.657 0-1.92.02-3.83.02-5.749-.01-.485-.01-.96-.02-1.435Z" fill="url(#a)"/><path d="M8.801 22.663c-1.747-.515-2.424-2.354-2.798-3.96-.081-.354-.162-.697-.202-1.05-.142-1.082-.142-2.264.212-3.305-.263.061-.384.293-.546.475-.565.677-.616 1.475-.636 2.263-.06 1.85.606 3.163.758 3.446a6.02 6.02 0 0 0 .818 1.172 5.44 5.44 0 0 0 1.081.929 3.308 3.308 0 0 1-.93-.394 3.413 3.413 0 0 1-.727-.606 6.421 6.421 0 0 1-.485-.717c-.273-.486-.626-1.082-.798-1.88-.05-.222-.08-.454-.172-.465-.131-.01-.273.445-.303.546a2.365 2.365 0 0 0-.121.768c.01.606.465 1.788 1.546 2.586 0 0 .95.698 2.576.758.07 0 .465-.01.748-.212.141-.121.232-.283-.02-.354Z" fill="url(#b)"/><path d="m6.013 14.338.01.01.02-.03-.03.02Z" fill="url(#c)"/><path d="M37.05 13.742c.01-.222 0-.556-.08-.95-.01-.04-.021-.141-.072-.262-.03-.06-.1-.233-.282-.344a.605.605 0 0 0-.314-.1c-.08 0-.161.01-.232.01h-.96a.738.738 0 0 0-.505.211c-.162.172-.293.405-.505.93-.04.08-.06.162-.08.202-.082.172-1.223 2.647-1.658 3.364-.03.05-.1.172-.192.162-.09 0-.162-.111-.192-.162-.434-.717-1.576-3.192-1.657-3.364-.02-.05-.05-.121-.08-.202-.213-.515-.344-.758-.506-.93a.72.72 0 0 0-.505-.212c-.212-.01-.424 0-.636 0h-.324c-.08 0-.161 0-.232-.01a.577.577 0 0 0-.313.101c-.182.111-.253.283-.283.344-.05.121-.06.222-.07.262a3.92 3.92 0 0 0-.082.95c-.08 2.546-.161 5.092-.252 7.628 0 .04.01.101.03.162.131.373.606.555.97.555s.808-.171.96-.505c0 0 .03-.07.05-.141.111-.515.172-4.688.192-6.507 1 2.041 1.778 3.567 2.132 4.244.07.141.232.414.515.515.081.03.172.04.273.04.091 0 .182-.02.273-.04.283-.091.444-.374.515-.515a134.94 134.94 0 0 0 2.132-4.244c.02 1.819.08 5.992.192 6.507.02.07.04.141.05.141.152.334.596.515.96.505.364 0 .839-.192.97-.555.02-.06.03-.122.03-.162-.06-2.546-.141-5.082-.232-7.628Z" fill="url(#d)"/><path d="M25.068 12.388c-.202-.262-.566-.273-.9-.283-.323-.01-.727-.02-.99.263a.804.804 0 0 0-.192.455c-.01 1.879-.01 3.758-.02 5.637 0 .182-.01.526-.202.91-.192.404-.475.626-.545.687 0 0-.475.373-1.092.424-.06 0-.13.01-.13.01h-.101s-.062 0-.132-.01a2.262 2.262 0 0 1-1.091-.424c-.071-.061-.354-.283-.546-.688a2.111 2.111 0 0 1-.202-.909c-.01-1.879-.01-3.758-.02-5.637a.778.778 0 0 0-.192-.455c-.253-.283-.667-.273-.99-.263-.344.01-.697.02-.9.283-.161.202-.151.455-.141.566v5.9c0 .546.162 1.273.687 1.97.586.778 1.435 1.122 1.687 1.213.526.192 1.04.252 1.203.262.272.03.505.03.677.02.171.01.404 0 .676-.02.162-.02.677-.07 1.203-.262.262-.101 1.1-.445 1.687-1.213a3.255 3.255 0 0 0 .687-1.97v-5.9a.686.686 0 0 0-.121-.566Z" fill="url(#e)"/><path d="M48.467 15.227a4.647 4.647 0 0 0-1.657-2.374c-.9-.667-2.01-1.02-3.122-1.05-1.122.03-2.223.383-3.122 1.05a4.647 4.647 0 0 0-1.657 2.374c-.808 2.718.414 6.183 3.334 6.951.475.121.96.172 1.445.162.485.01.97-.04 1.445-.162 2.92-.768 4.142-4.233 3.334-6.95Zm-2.172 3.041c-.303 1.283-1.162 2.668-2.607 2.688-1.455-.02-2.304-1.405-2.617-2.688-.293-1.242-.242-2.697.455-3.809.485-.767 1.303-1.222 2.152-1.222a2.59 2.59 0 0 1 2.152 1.222c.697 1.102.758 2.567.465 3.81Z" fill="url(#f)"/><defs><linearGradient id="a" x1="12.655" y1="18.252" x2="5.729" y2="13.011" gradientUnits="userSpaceOnUse"><stop offset=".329" stop-color="#9C8837"/><stop offset=".561" stop-color="#F7E59E"/><stop offset=".601" stop-color="#EFDD95"/><stop offset=".664" stop-color="#DDCA81"/><stop offset=".741" stop-color="#C4B062"/><stop offset=".787" stop-color="#B39F4D"/></linearGradient><linearGradient id="b" x1="10.068" y1="21.67" x2="3.142" y2="16.43" gradientUnits="userSpaceOnUse"><stop offset=".329" stop-color="#9C8837"/><stop offset=".561" stop-color="#F7E59E"/><stop offset=".601" stop-color="#EFDD95"/><stop offset=".664" stop-color="#DDCA81"/><stop offset=".741" stop-color="#C4B062"/><stop offset=".787" stop-color="#B39F4D"/></linearGradient><linearGradient id="c" x1="12.129" y1="18.946" x2="5.204" y2="13.706" gradientUnits="userSpaceOnUse"><stop offset=".329" stop-color="#9C8837"/><stop offset=".561" stop-color="#F7E59E"/><stop offset=".601" stop-color="#EFDD95"/><stop offset=".664" stop-color="#DDCA81"/><stop offset=".741" stop-color="#C4B062"/><stop offset=".787" stop-color="#B39F4D"/></linearGradient><linearGradient id="d" x1="38.311" y1="20.39" x2="27.548" y2="14.681" gradientUnits="userSpaceOnUse"><stop offset=".329" stop-color="#9C8837"/><stop offset=".561" stop-color="#F7E59E"/><stop offset=".601" stop-color="#EFDD95"/><stop offset=".664" stop-color="#DDCA81"/><stop offset=".741" stop-color="#C4B062"/><stop offset=".787" stop-color="#B39F4D"/></linearGradient><linearGradient id="e" x1="26.253" y1="19.861" x2="15.49" y2="13.123" gradientUnits="userSpaceOnUse"><stop offset=".329" stop-color="#9C8837"/><stop offset=".561" stop-color="#F7E59E"/><stop offset=".601" stop-color="#EFDD95"/><stop offset=".664" stop-color="#DDCA81"/><stop offset=".741" stop-color="#C4B062"/><stop offset=".787" stop-color="#B39F4D"/></linearGradient><linearGradient id="f" x1="51.275" y1="21.508" x2="37.892" y2="13.741" gradientUnits="userSpaceOnUse"><stop offset=".329" stop-color="#9C8837"/><stop offset=".561" stop-color="#F7E59E"/><stop offset=".601" stop-color="#EFDD95"/><stop offset=".664" stop-color="#DDCA81"/><stop offset=".741" stop-color="#C4B062"/><stop offset=".787" stop-color="#B39F4D"/></linearGradient></defs></svg>