<svg width="53" height="35" fill="none" xmlns="http://www.w3.org/2000/svg"><path d="M0 3a3 3 0 0 1 3-3h46.093a3 3 0 0 1 3 3v29a3 3 0 0 1-3 3H3a3 3 0 0 1-3-3V3Z" fill="#01326F"/><path d="M30.723 8.862h-9.614v17.277h9.613V8.862Z" fill="#FF5F00"/><path d="M21.72 17.502a10.968 10.968 0 0 1 4.196-8.64 10.987 10.987 0 1 0 0 17.277 10.97 10.97 0 0 1-4.197-8.637Z" fill="#EB001B"/><path d="M43.693 17.502a10.988 10.988 0 0 1-17.777 8.637 10.986 10.986 0 0 0 0-17.278A10.988 10.988 0 0 1 43.693 17.5v.003Z" fill="#F79E1B"/></svg>