<svg width="53" height="35" fill="none" xmlns="http://www.w3.org/2000/svg"><path d="M.186 3a3 3 0 0 1 3-3h46.093a3 3 0 0 1 3 3v29a3 3 0 0 1-3 3H3.186a3 3 0 0 1-3-3V3Z" fill="#203E7A"/><path fill-rule="evenodd" clip-rule="evenodd" d="M15.743 30.86c.885 0 1.312-.498 1.312-1.23v-1.767h-.633v1.748a.695.695 0 0 1-.207.476.678.678 0 0 1-.95 0 .695.695 0 0 1-.207-.476v-1.748h-.628v1.771c0 .724.427 1.228 1.312 1.228l.001-.002Zm5.133-.053v-.551h-1.404l1.374-1.888v-.503H18.66v.552h1.372l-1.37 1.88v.507l2.213.003Zm2.957.053c.25.006.495-.058.71-.186.215-.128.39-.314.506-.538l-.534-.26a.786.786 0 0 1-.684.428.95.95 0 0 1-.646-.3.974.974 0 0 1 0-1.334.95.95 0 0 1 .646-.299.779.779 0 0 1 .684.428l.533-.265a1.34 1.34 0 0 0-.506-.536 1.318 1.318 0 0 0-.71-.184 1.488 1.488 0 0 0-1.09.406 1.524 1.524 0 0 0-.48 1.071 1.54 1.54 0 0 0 .416 1.099 1.505 1.505 0 0 0 1.065.47h.09Zm5.407-.053-1.12-2.944h-.775l-1.125 2.945h.704l.183-.498h1.246l.179.498h.708Zm-1.054-1.05h-.907l.453-1.267.454 1.267Zm5.232 1.789-1.064-1.859a.83.83 0 0 0 .475-.32.851.851 0 0 0 .161-.554.924.924 0 0 0-.24-.658.9.9 0 0 0-.736-.293h-1.362v2.946h.616v-1.047h.453l.986 1.785h.711ZM31.92 29.21h-.65v-.794h.648a.39.39 0 0 1 .29.087.401.401 0 0 1-.29.707h.002Zm3.82 1.598c.912 0 1.543-.582 1.543-1.47 0-.887-.633-1.475-1.542-1.475h-1.147v2.945h1.147Zm0-.551h-.524v-1.841h.527a.844.844 0 0 1 .617.206.865.865 0 0 1 .294.715.889.889 0 0 1-.229.634.866.866 0 0 1-.684.284v.002Zm2.295-2.449v.007a.553.553 0 0 1-.334.507.535.535 0 0 1-.59-.118.55.55 0 0 1 .382-.936h.541v.54ZM35.461 14.99c0 3.34-.753 5.825-2.26 7.453-1.506 1.622-3.83 2.433-6.973 2.433-2.932 0-5.156-.81-6.673-2.433-1.517-1.622-2.276-4.068-2.276-7.34V4.13a.47.47 0 0 1 .135-.33.459.459 0 0 1 .325-.136h5.317c.122 0 .24.05.325.137a.47.47 0 0 1 .136.33v11.213c0 1.336.244 2.364.74 3.089.246.33.564.6.93.787a2.662 2.662 0 0 0 3.312-.723c.485-.68.727-1.683.727-3.008v-2.1h6.235v1.601Z" fill="#fff"/><path fill-rule="evenodd" clip-rule="evenodd" d="M34.98 12.162h-5.754V4.15c0-.13.051-.253.141-.344a.48.48 0 0 1 .34-.144h.86a4.993 4.993 0 0 0 1.435 3.501 4.861 4.861 0 0 0 3.458 1.45v3.548h-.48Z" fill="#fff"/><path fill-rule="evenodd" clip-rule="evenodd" d="M31.794 3.663h3.185a.48.48 0 0 1 .34.143.496.496 0 0 1 .143.345v3.23a3.645 3.645 0 0 1-2.594-1.087 3.74 3.74 0 0 1-1.074-2.627v-.004Z" fill="#F4821F"/></svg>