<svg width="53" height="35" fill="none" xmlns="http://www.w3.org/2000/svg"><path d="M.093 3a3 3 0 0 1 3-3h46.093a3 3 0 0 1 3 3v29a3 3 0 0 1-3 3H3.093a3 3 0 0 1-3-3V3Z" fill="url(#a)"/><path d="M26.81 15.429c-.022 1.757 1.566 2.738 2.763 3.321 1.23.598 1.642.982 1.638 1.517-.01.819-.981 1.18-1.89 1.194-1.586.025-2.509-.428-3.242-.77l-.571 2.673c.736.34 2.098.635 3.51.648 3.315 0 5.485-1.637 5.496-4.174.013-3.22-4.454-3.4-4.424-4.839.01-.436.427-.902 1.34-1.02.452-.06 1.699-.106 3.112.545l.555-2.587a8.463 8.463 0 0 0-2.954-.542c-3.12 0-5.315 1.66-5.333 4.034Zm13.62-3.81a1.44 1.44 0 0 0-1.344.895L34.35 23.822h3.313l.66-1.822h4.048l.383 1.822h2.92l-2.549-12.204H40.43Zm.463 3.296.956 4.582h-2.618l1.662-4.582Zm-18.1-3.297-2.611 12.204h3.157l2.61-12.204h-3.156Zm-4.67 0-3.286 8.306-1.33-7.062c-.155-.789-.771-1.244-1.455-1.244H6.68l-.075.355c1.102.239 2.355.625 3.114 1.038.465.252.598.473.75 1.072l2.518 9.739h3.336l5.115-12.204h-3.315Z" fill="url(#b)"/><defs><linearGradient id="a" x1="23.494" y1="35" x2="34.259" y2=".761" gradientUnits="userSpaceOnUse"><stop stop-color="#222357"/><stop offset="1" stop-color="#254AA5"/></linearGradient><linearGradient id="b" x1="25.326" y1="24.012" x2="28.995" y2="12.573" gradientUnits="userSpaceOnUse"><stop stop-color="#fff"/><stop offset="1" stop-color="#fff"/></linearGradient></defs></svg>